HIERARCHY
ROOT Hips
{
	OFFSET -3.958830 18.904000 13.208200
	CHANNELS 6 Xposition Yposition Zposition Zrotation Yrotation Xrotation 
	JOINT LHipJoint
	{
		OFFSET 0.000000 0.000000 0.000000
		CHANNELS 3 Zrotation Yrotation Xrotation
		JOINT LeftUpLeg
		{
			OFFSET 1.800000 -1.400000 0.085000
			CHANNELS 3 Zrotation Yrotation Xrotation
			JOINT LeftLeg
			{
				OFFSET 2.215000 -6.000000 0.000000
				CHANNELS 3 Zrotation Yrotation Xrotation
				JOINT LeftFoot
				{
					OFFSET 2.500000 -6.900000 0.000000
					CHANNELS 3 Zrotation Yrotation Xrotation
					JOINT LeftToeBase
					{
						OFFSET 0.200000 -0.500000 1.950000
						CHANNELS 3 Zrotation Yrotation Xrotation
						End Site
						{
							OFFSET 0.000000 0.000000 0.000000
						}
					}
				}
			}
		}
	}
	JOINT RHipJoint
	{
		OFFSET 0.000000 0.000000 0.000000
		CHANNELS 3 Zrotation Yrotation Xrotation
		JOINT RightUpLeg
		{
			OFFSET -1.800000 -1.400000 0.085000
			CHANNELS 3 Zrotation Yrotation Xrotation
			JOINT RightLeg
			{
				OFFSET -2.215000 -6.000000 0.000000
				CHANNELS 3 Zrotation Yrotation Xrotation
				JOINT RightFoot
				{
					OFFSET -2.500000 -6.900000 0.000000
					CHANNELS 3 Zrotation Yrotation Xrotation
					JOINT RightToeBase
					{
						OFFSET -0.200000 -0.500000 1.950000
						CHANNELS 3 Zrotation Yrotation Xrotation
						End Site
						{
							OFFSET 0.000000 0.000000 0.000000
						}
					}
				}
			}
		}
	}
	JOINT LowerBack
	{
		OFFSET 0.000000 0.000000 0.000000
		CHANNELS 3 Zrotation Yrotation Xrotation
		JOINT Spine
		{
			OFFSET -0.087000 1.940000 -0.288900
			CHANNELS 3 Zrotation Yrotation Xrotation
			JOINT Spine1
			{
				OFFSET 0.000000 1.950000 0.060000
				CHANNELS 3 Zrotation Yrotation Xrotation
				JOINT Neck
				{
					OFFSET 0.000000 0.000000 0.000000
					CHANNELS 3 Zrotation Yrotation Xrotation
					JOINT Neck1
					{
						OFFSET 0.000000 1.600000 0.340000
						CHANNELS 3 Zrotation Yrotation Xrotation
						JOINT Head
						{
							OFFSET 0.000000 1.667000 -0.240000
							CHANNELS 3 Zrotation Yrotation Xrotation
							End Site
							{
								OFFSET 0.000000 0.000000 0.000000
							}
						}
					}
				}
				JOINT LeftShoulder
				{
					OFFSET 0.000000 0.000000 0.000000
					CHANNELS 3 Zrotation Yrotation Xrotation
					JOINT LeftArm
					{
						OFFSET 2.700000 1.550000 -0.730000
						CHANNELS 3 Zrotation Yrotation Xrotation
						JOINT LeftForeArm
						{
							OFFSET 5.450000 0.000000 0.000000
							CHANNELS 3 Zrotation Yrotation Xrotation
							JOINT LeftHand
							{
								OFFSET 3.450000 0.000000 0.000000
								CHANNELS 3 Zrotation Yrotation Xrotation
								JOINT LeftHandIndex1
								{
									OFFSET 0.750000 0.000000 0.000000
									CHANNELS 3 Zrotation Yrotation Xrotation
									End Site
									{
										OFFSET 0.000000 0.000000 0.000000
									}
								}
							}
						}
					}
				}
				JOINT RightShoulder
				{
					OFFSET 0.000000 0.000000 0.000000
					CHANNELS 3 Zrotation Yrotation Xrotation
					JOINT RightArm
					{
						OFFSET -2.700000 1.550000 -0.730000
						CHANNELS 3 Zrotation Yrotation Xrotation
						JOINT RightForeArm
						{
							OFFSET -5.450000 0.000000 0.000000
							CHANNELS 3 Zrotation Yrotation Xrotation
							JOINT RightHand
							{
								OFFSET -3.450000 0.000000 0.000000
								CHANNELS 3 Zrotation Yrotation Xrotation
								JOINT RightHandIndex1
								{
									OFFSET -0.750000 0.000000 0.000000
									CHANNELS 3 Zrotation Yrotation Xrotation
									End Site
									{
										OFFSET 0.000000 0.000000 0.000000
									}
								}
							}
						}
					}
				}
			}
		}
	}
}
MOTION
Frames: 7
Frame Time: 0.016667
-0.473850 16.910330 -2.278900 -2.345820 -13.830849 -20.507723 -13.954693 11.669119 1.958190 5.725226 -0.075886 -1.253638 -4.460756 5.364063 13.778540 -1.040386 4.871862 3.158197 -0.152610 -0.349640 -0.474390 19.573947 -12.949352 3.210782 -5.078841 -3.767694 13.916091 2.359308 -7.155737 12.303502 -0.961125 -6.494264 2.340182 0.105710 1.019600 0.338500 -7.381239 3.881262 -6.918403 27.793691 2.177805 7.694850 -13.318562 1.333755 30.391910 4.801005 -6.094790 -12.120437 -12.259125 5.166059 51.576402 -2.768220 -1.491960 -5.238030 -5.225046 -58.796351 9.973285 1.243207 -43.743834 -8.653957 53.518190 -24.288549 -14.569645 -4.765582 2.327318 0.553200 0.541140 -0.247440 0.282310 -1.255462 58.513750 -2.638710 8.858641 43.944300 -9.095245 -55.923970 15.184878 -11.347511 1.971504 -0.848891 -0.610940 0.773410 0.635310 -0.009800 
-0.478270 16.905280 -2.269370 -2.244449 -14.130471 -20.795743 -13.956307 11.644575 1.944505 5.744125 -0.053857 -1.023488 -4.527055 5.445291 14.059145 -1.037724 4.926395 3.142685 -0.161990 -0.349370 -0.484900 19.578403 -12.966568 3.209037 -5.051287 -3.791300 14.189500 2.100316 -7.128493 12.470936 -0.960635 -6.533683 2.330495 0.115320 1.035840 0.331860 -7.407121 3.964966 -6.891092 27.703436 2.351421 7.483314 -13.044765 1.419730 30.829551 4.750478 -6.122606 -11.990471 -12.037574 5.029796 51.203495 -2.885660 -1.509330 -5.139300 -4.867009 -58.787865 10.071333 1.290748 -43.486201 -8.738454 55.032000 -25.130898 -15.322122 -4.797886 2.304710 0.535740 0.555690 -0.260750 0.281620 -1.342978 58.553821 -2.595001 9.218498 44.391348 -9.311379 -58.109870 14.771541 -11.599302 1.948054 -0.829736 -0.619500 0.786590 0.641960 -0.005200 
-0.483830 16.893080 -2.252410 -1.899184 -14.538055 -21.227434 -13.962905 11.587372 1.922968 5.454672 -0.071642 -0.839097 -4.526870 5.532711 14.692587 -1.031077 4.995746 3.124173 -0.146270 -0.313640 -0.483400 19.585380 -13.007227 3.192789 -5.169884 -3.764327 14.497603 1.713748 -7.074603 12.805998 -0.959552 -6.617839 2.296000 0.153370 1.062610 0.341620 -7.445484 4.150072 -6.827956 27.532012 2.774036 6.903379 -12.536488 1.712836 31.684057 4.620995 -5.956750 -11.504222 -11.153484 4.442759 50.020224 -3.250740 -1.679400 -4.933190 -3.620771 -58.711184 9.897628 0.900723 -43.831090 -8.637230 58.152068 -25.837504 -16.683105 -4.840247 2.300968 0.480160 0.592460 -0.285410 0.289370 -2.026492 58.254579 -2.641652 10.117125 45.239711 -9.419961 -62.523914 13.903024 -12.186796 1.894792 -0.839163 -0.612340 0.789450 0.635360 0.009150 
-0.487480 16.877850 -2.228300 -1.811973 -14.902358 -21.617640 -13.969261 11.582576 1.908649 5.616289 -0.103948 -0.734341 -4.572687 5.655190 15.352827 -1.044728 5.098013 3.087269 -0.147810 -0.313600 -0.485360 19.576372 -13.051113 3.174642 -5.323012 -3.772755 14.664274 1.492262 -7.112562 13.500662 -0.952233 -6.687936 2.266404 0.173470 1.081930 0.346190 -7.438101 4.271806 -6.762843 27.708551 3.085606 6.336322 -12.403330 1.932659 32.210678 4.786005 -5.474589 -11.243826 -9.968260 3.875771 49.592552 -3.496040 -1.826250 -4.781130 -3.680417 -57.952831 10.223906 -0.039665 -45.241176 -7.913637 61.373850 -26.835791 -18.324844 -4.854607 2.256909 0.462910 0.617170 -0.306170 0.285470 -2.063198 57.447206 -2.122733 11.305608 46.310468 -9.198489 -67.629898 13.472029 -13.164893 1.839663 -0.816781 -0.625820 0.796100 0.646040 0.005320 
-0.488650 16.860250 -2.202300 -1.973471 -15.172957 -22.060904 -13.975767 11.618614 1.895417 6.201956 -0.111006 -0.600891 -4.699559 5.796447 15.896592 -1.056266 5.195539 3.036422 -0.108510 -0.276600 -0.465980 19.559645 -13.079559 3.150873 -5.510981 -3.828552 14.836442 1.466949 -7.239571 14.441163 -0.973522 -6.754072 2.235226 0.198960 1.068180 0.364340 -7.402336 4.298768 -6.690184 28.067869 3.228341 5.916192 -12.264418 1.835477 32.390121 4.785716 -5.076252 -10.937763 -9.221131 3.647013 49.765216 -3.226700 -1.978320 -5.499110 -4.254040 -56.705650 10.446779 -1.491682 -47.300177 -6.548447 63.610512 -27.999603 -19.839341 -4.817577 2.232131 0.478290 0.612270 -0.294580 0.291920 -1.377867 56.338023 -1.375087 13.205247 48.126321 -8.127273 -72.367479 12.785169 -14.152758 1.774231 -0.807862 -0.616720 0.787760 0.638730 -0.002600 
-0.491770 16.843000 -2.176950 -2.177361 -15.331244 -22.621185 -13.977978 11.624108 1.870582 6.735403 -0.112508 -0.333648 -4.727031 5.903153 16.385466 -1.079716 5.286116 2.988206 -0.058010 -0.211030 -0.440800 19.555448 -13.120311 3.127818 -5.573357 -3.942012 15.164975 1.371189 -7.366547 15.544084 -0.999071 -6.854076 2.188143 0.251840 1.058800 0.374490 -7.397498 4.393353 -6.614310 28.389211 3.384022 5.439055 -12.018774 1.713116 32.883864 4.709487 -4.640341 -10.403179 -8.218938 3.263031 49.308739 -3.058740 -2.153760 -6.554100 -4.614869 -55.518033 10.362450 -2.885148 -49.434271 -5.058886 65.537448 -29.058728 -21.284635 -4.786265 2.211423 0.473880 0.616310 -0.289260 0.298040 -0.641503 55.188787 -0.830449 15.462841 50.079488 -6.703805 -77.297589 12.134192 -15.405308 1.696621 -0.804119 -0.609880 0.792350 0.626470 -0.006860 
-0.493540 16.822680 -2.150980 -2.397945 -15.560866 -23.275300 -13.964522 11.618852 1.845089 7.149420 -0.118247 0.043090 -4.552495 5.939263 16.830161 -1.105229 5.351792 2.949093 -0.002020 -0.150110 -0.402080 19.565422 -13.179796 3.118409 -5.645784 -4.046509 15.601111 1.255319 -7.494984 16.599071 -1.037106 -6.957966 2.135072 0.298090 1.038000 0.388180 -7.443827 4.528910 -6.570116 28.905379 3.558159 5.056445 -11.825929 1.530276 33.261502 4.678484 -4.441960 -9.962499 -7.676295 3.043626 49.245662 -2.905240 -2.290380 -7.663580 -4.795937 -54.589306 10.311278 -4.617074 -51.290390 -3.444039 67.582265 -29.961152 -22.745238 -4.750094 2.191019 0.482100 0.608800 -0.273910 0.302980 -0.123274 54.211026 -0.633340 18.082833 51.678806 -4.761133 -81.071830 11.656649 -16.610394 1.605514 -0.780769 -0.600330 0.791780 0.609940 -0.016120 
